<?xml version="1.0" standalone="no"?>
<!DOCTYPE svg PUBLIC "-//W3C//DTD SVG 20010904//EN"
 "http://www.w3.org/TR/2001/REC-SVG-20010904/DTD/svg10.dtd">
<svg version="1.0" xmlns="http://www.w3.org/2000/svg"
 width="500.000000pt" height="170.000000pt" viewBox="0 0 500.000000 170.000000"
 preserveAspectRatio="xMidYMid meet">

<g transform="translate(0.000000,170.000000) scale(0.100000,-0.100000)"
fill="#000000" stroke="none">
<path d="M650 1316 c0 -195 2 -225 16 -230 31 -12 399 -7 412 6 13 13 15 49 6
85 -6 22 -11 23 -143 25 l-136 3 0 25 0 25 125 5 125 5 0 50 0 50 -125 5
c-112 4 -125 7 -128 24 -6 30 16 36 149 36 136 0 139 1 139 55 0 56 5 55 -226
55 l-214 0 0 -224z"/>
<path d="M1104 1516 c-3 -13 -4 -96 -2 -183 4 -185 13 -212 85 -239 59 -23
172 -16 210 12 49 36 53 55 53 252 l0 182 -70 0 -70 0 0 -154 c0 -124 -3 -156
-15 -166 -8 -7 -21 -10 -30 -7 -12 5 -15 35 -17 164 l-3 158 -67 3 c-64 3 -68
2 -74 -22z"/>
<path d="M1477 1533 c-13 -12 -8 -428 5 -441 12 -12 95 -16 122 -6 13 5 16 22
16 78 0 43 5 77 12 84 13 13 85 16 112 6 12 -5 16 -21 16 -73 0 -91 10 -103
85 -99 l60 3 0 90 0 90 -35 16 c-19 9 -35 22 -34 28 2 27 5 31 22 31 37 0 55
34 50 96 -4 47 -10 62 -32 81 -26 22 -33 23 -210 23 -100 0 -186 -3 -189 -7z
m278 -133 c0 -24 -2 -25 -65 -25 -55 0 -65 3 -68 19 -6 27 16 37 78 34 51 -3
55 -5 55 -28z"/>
<path d="M1984 1521 c-44 -27 -54 -66 -54 -215 0 -150 13 -186 75 -212 49 -20
161 -18 205 4 57 28 70 67 70 215 0 198 -22 227 -177 227 -69 0 -95 -4 -119
-19z m141 -206 c0 -103 -1 -110 -20 -110 -18 0 -21 9 -26 95 -6 100 2 133 29
128 15 -3 17 -18 17 -113z"/>
<path d="M2300 1408 c0 -111 4 -147 25 -217 13 -46 30 -90 36 -97 15 -19 212
-20 227 -1 6 6 22 53 36 103 23 80 26 106 24 215 l-3 124 -70 0 -70 0 -3 -157
-3 -158 -24 0 c-28 0 -26 -14 -31 210 -1 47 -2 91 -3 98 -1 8 -22 12 -71 12
l-70 0 0 -132z"/>
<path d="M2672 1313 l3 -228 65 0 65 0 3 228 2 227 -70 0 -70 0 2 -227z"/>
<path d="M2890 1523 c-37 -26 -48 -44 -56 -91 -9 -58 9 -114 47 -146 27 -23
39 -26 112 -26 106 0 129 -6 125 -34 -3 -20 -9 -21 -138 -24 -92 -2 -137 -6
-142 -15 -12 -19 -9 -82 4 -95 8 -8 60 -12 168 -12 128 0 161 3 190 18 50 24
72 73 67 145 -3 49 -8 63 -35 90 -32 31 -35 32 -140 37 -106 5 -107 5 -107 30
l0 25 140 5 140 5 0 50 0 50 -175 3 c-152 2 -178 0 -200 -15z"/>
<path d="M3292 1313 l3 -228 65 0 65 0 3 228 2 227 -70 0 -70 0 2 -227z"/>
<path d="M3505 1518 c-44 -34 -55 -75 -55 -202 0 -188 26 -226 160 -234 92 -5
141 12 170 60 17 29 20 50 20 171 0 204 -18 227 -178 227 -76 0 -93 -3 -117
-22z m143 -100 c14 -14 17 -185 3 -206 -5 -8 -17 -12 -27 -10 -17 3 -19 15
-22 102 -1 55 0 106 2 113 7 16 28 17 44 1z"/>
<path d="M3827 1534 c-13 -13 -8 -429 5 -442 12 -12 95 -16 122 -6 14 5 16 29
16 159 0 133 2 154 17 159 31 12 38 -13 43 -167 l5 -152 155 0 155 0 3 228 2
227 -70 0 -70 0 0 -147 c0 -82 -4 -154 -9 -161 -5 -8 -17 -12 -27 -10 -17 3
-19 17 -24 158 l-5 155 -156 3 c-85 1 -158 -1 -162 -4z"/>
<path d="M688 979 c-14 -8 -18 -24 -18 -77 0 -79 9 -92 62 -92 l38 0 0 -119 0
-120 -47 -3 -48 -3 0 -80 0 -80 200 0 200 0 0 80 0 80 -47 3 -48 3 0 120 0
119 38 0 c53 0 62 13 62 92 0 56 -3 69 -19 78 -26 13 -350 13 -373 -1z m372
-78 l0 -60 -52 -3 -53 -3 -3 -142 -3 -142 53 -3 53 -3 0 -60 0 -60 -180 0
-180 0 0 60 0 60 53 3 52 3 0 144 0 144 -52 3 -53 3 -3 44 c-5 74 -13 71 188
71 l180 0 0 -59z"/>
<path d="M1170 981 c-13 -9 -15 -53 -18 -275 -2 -180 1 -272 8 -286 10 -19 19
-21 98 -18 l87 3 3 123 c1 67 6 122 10 121 4 0 28 -26 55 -59 43 -53 47 -63
47 -112 0 -30 5 -59 12 -66 16 -16 160 -16 176 0 9 9 12 86 12 285 0 313 7
293 -100 293 -94 0 -100 -6 -100 -98 l0 -77 -49 55 c-26 30 -59 68 -73 84 -22
26 -33 30 -89 33 -35 2 -71 -1 -79 -6z m222 -128 l93 -106 3 106 3 107 69 0
70 0 0 -270 0 -270 -70 0 -70 0 0 58 c0 57 -1 58 -77 151 l-78 94 -5 -149 -5
-149 -72 -3 -73 -3 0 271 0 270 59 0 60 0 93 -107z"/>
<path d="M1847 979 c-87 -20 -117 -67 -117 -182 0 -136 28 -168 170 -190 129
-20 116 -37 -27 -37 -79 0 -123 -4 -131 -12 -12 -12 -17 -114 -6 -142 5 -14
30 -16 170 -16 179 0 210 7 254 54 23 25 25 37 28 132 l4 104 -34 34 c-34 34
-60 42 -185 61 -77 12 -45 25 60 25 56 0 109 5 117 10 11 7 15 28 15 75 0 92
-6 95 -159 94 -67 -1 -138 -5 -159 -10z m293 -79 l0 -59 -106 -3 c-89 -3 -109
-6 -118 -20 -21 -34 4 -52 91 -64 136 -20 164 -47 162 -163 0 -79 -17 -121
-59 -146 -30 -17 -56 -20 -193 -24 l-158 -3 3 62 3 63 102 -2 c118 -2 146 7
141 47 -3 26 -7 28 -93 42 -145 25 -155 36 -155 167 0 146 23 162 238 163
l142 0 0 -60z"/>
<path d="M2258 979 c-14 -8 -18 -24 -18 -77 0 -79 9 -92 62 -92 l38 0 0 -119
0 -120 -47 -3 -48 -3 0 -80 0 -80 200 0 200 0 0 80 0 80 -47 3 -48 3 0 120 0
119 34 0 c62 0 66 5 66 86 0 62 -3 75 -19 84 -26 13 -350 13 -373 -1z m372
-78 l0 -60 -52 -3 -53 -3 -3 -142 -3 -142 53 -3 53 -3 0 -60 0 -60 -174 -3
c-192 -3 -191 -3 -191 60 0 60 7 68 61 68 l49 0 0 144 0 145 -52 3 -53 3 -3
44 c-5 74 -13 71 188 71 l180 0 0 -59z"/>
<path d="M2747 978 c-16 -12 -17 -35 -15 -293 l3 -280 185 -3 c175 -2 187 -1
230 20 73 37 84 68 89 237 5 214 -15 276 -104 312 -45 18 -365 25 -388 7z
m401 -41 c56 -31 64 -65 60 -263 l-3 -174 -30 -30 c-40 -40 -106 -51 -281 -48
l-139 3 -3 268 -2 269 182 -4 c154 -2 188 -6 216 -21z"/>
<path d="M2904 827 c-2 -7 -3 -74 -2 -148 l3 -134 61 0 c91 0 94 5 94 146 0
143 -4 149 -91 149 -40 0 -61 -4 -65 -13z m126 -137 l0 -120 -50 0 -50 0 0
120 0 120 50 0 50 0 0 -120z"/>
<path d="M3328 979 c-16 -9 -18 -33 -18 -282 0 -150 4 -278 8 -285 7 -9 57
-12 218 -10 l209 3 0 80 0 80 -117 3 c-110 2 -118 4 -118 22 0 18 7 20 71 20
100 0 109 7 109 83 0 36 -5 68 -12 75 -7 7 -43 12 -90 12 -63 0 -78 3 -78 15
0 12 19 15 108 15 71 0 112 4 120 12 7 7 12 40 12 80 0 56 -3 69 -19 78 -26
13 -380 13 -403 -1z m402 -79 l0 -60 -126 0 -125 0 3 -42 3 -43 87 -3 c83 -3
86 -4 93 -29 3 -14 3 -38 0 -54 l-7 -29 -89 0 -90 0 3 -47 3 -48 123 -3 123
-3 -3 -57 -3 -57 -189 -3 c-145 -2 -191 1 -198 10 -9 16 -11 512 -1 521 3 4
93 7 200 7 l193 0 0 -60z"/>
<path d="M3837 975 c-15 -15 -17 -47 -17 -284 0 -218 3 -271 14 -280 9 -8 45
-11 98 -9 l83 3 5 85 5 85 55 0 55 0 5 -85 5 -85 95 0 95 0 3 110 c3 132 0
150 -39 186 -25 24 -28 31 -19 54 27 71 2 169 -53 209 -25 19 -46 21 -201 24
-151 4 -174 2 -189 -13z m368 -29 c46 -20 56 -44 53 -129 -3 -70 -4 -72 -36
-89 l-33 -16 40 -7 c69 -11 81 -37 81 -172 l0 -114 -72 3 -73 3 -5 85 -5 85
-77 3 -77 3 -3 -88 -3 -88 -72 -3 -73 -3 0 271 0 270 160 0 c116 0 170 -4 195
-14z"/>
<path d="M4000 786 l0 -66 44 0 c52 0 76 19 76 59 0 43 -21 62 -73 68 l-47 6
0 -67z m90 0 c0 -36 -18 -51 -51 -41 -14 5 -19 16 -19 41 0 32 2 34 35 34 33
0 35 -2 35 -34z"/>
<path d="M1047 294 c-4 -4 -7 -34 -7 -66 l0 -59 33 3 32 3 0 60 c0 57 -1 60
-25 63 -14 2 -29 0 -33 -4z m43 -59 c0 -33 -4 -45 -15 -45 -11 0 -15 12 -15
45 0 33 4 45 15 45 11 0 15 -12 15 -45z"/>
<path d="M1170 235 l0 -65 30 0 c17 0 30 5 30 10 0 6 -11 10 -25 10 -18 0 -25
5 -25 20 0 11 7 20 15 20 8 0 15 5 15 10 0 6 -7 10 -15 10 -8 0 -15 7 -15 15
0 9 9 15 25 15 14 0 25 5 25 10 0 6 -13 10 -30 10 l-30 0 0 -65z"/>
<path d="M1290 290 c0 -5 7 -10 15 -10 10 0 15 -16 18 -57 l3 -58 2 58 c2 44
5 57 18 57 8 0 12 5 9 10 -3 6 -19 10 -36 10 -16 0 -29 -4 -29 -10z"/>
<path d="M1422 233 c0 -37 3 -53 5 -35 5 35 25 39 31 6 8 -44 17 -29 17 29 0
60 -1 62 -27 65 l-28 3 2 -68z m48 32 c0 -8 -9 -15 -20 -15 -11 0 -20 7 -20
15 0 8 9 15 20 15 11 0 20 -7 20 -15z"/>
<path d="M1566 279 c-26 -113 -26 -126 0 -91 12 16 13 16 19 0 16 -40 22 -14
10 43 -15 69 -22 81 -29 48z m11 -61 c-3 -7 -5 -2 -5 12 0 14 2 19 5 13 2 -7
2 -19 0 -25z"/>
<path d="M1677 294 c-4 -4 -7 -20 -7 -36 0 -23 4 -28 25 -28 18 0 25 -5 25
-19 0 -25 -27 -34 -39 -13 -9 15 -10 14 -11 -5 0 -19 5 -23 30 -23 28 0 30 2
30 40 0 36 -2 40 -25 40 -16 0 -25 6 -25 16 0 12 7 15 25 11 16 -3 24 0 22 7
-4 13 -40 20 -50 10z"/>
<path d="M1857 294 c-4 -4 -7 -34 -7 -66 l0 -59 33 3 32 3 0 60 c0 57 -1 60
-25 63 -14 2 -29 0 -33 -4z m43 -59 c0 -33 -4 -45 -15 -45 -11 0 -15 12 -15
45 0 33 4 45 15 45 11 0 15 -12 15 -45z"/>
<path d="M1980 235 l0 -65 30 0 c17 0 30 5 30 10 0 6 -11 10 -25 10 -18 0 -25
5 -25 20 0 11 7 20 15 20 8 0 15 5 15 10 0 6 -7 10 -15 10 -8 0 -15 7 -15 15
0 9 9 15 25 15 14 0 25 5 25 10 0 6 -13 10 -30 10 l-30 0 0 -65z"/>
<path d="M2112 238 c-2 -66 -1 -68 23 -68 14 0 25 5 25 10 0 6 -9 10 -20 10
-16 0 -20 8 -23 58 l-3 57 -2 -67z"/>
<path d="M2285 290 c-3 -5 1 -10 9 -10 11 0 16 -14 19 -57 l3 -58 2 58 c2 43
6 57 17 57 8 0 15 5 15 10 0 6 -13 10 -29 10 -17 0 -33 -4 -36 -10z"/>
<path d="M2410 235 l0 -65 30 0 c17 0 30 5 30 10 0 6 -11 10 -25 10 -18 0 -25
5 -25 20 0 11 7 20 15 20 8 0 15 5 15 10 0 6 -7 10 -15 10 -8 0 -15 7 -15 15
0 9 9 15 25 15 14 0 25 5 25 10 0 6 -13 10 -30 10 l-30 0 0 -65z"/>
<path d="M2542 238 c-2 -66 -1 -68 23 -68 14 0 25 5 25 10 0 6 -9 10 -20 10
-16 0 -20 8 -23 58 l-3 57 -2 -67z"/>
<path d="M2654 287 c-3 -8 -4 -36 -2 -63 3 -47 4 -49 33 -49 l30 0 0 60 c0 58
-1 60 -28 63 -17 2 -29 -2 -33 -11z m46 -52 c0 -33 -4 -45 -15 -45 -11 0 -15
12 -15 45 0 33 4 45 15 45 11 0 15 -12 15 -45z"/>
<path d="M2781 233 c2 -59 3 -63 9 -28 l6 40 17 -37 c10 -21 19 -38 22 -38 3
0 4 30 3 68 -1 61 -2 63 -7 22 l-6 -45 -17 43 c-10 23 -20 42 -23 42 -3 0 -4
-30 -4 -67z"/>
<path d="M2970 236 l0 -66 30 0 31 0 -3 63 c-3 59 -4 62 -30 65 l-28 3 0 -65z
m48 -4 c3 -37 1 -42 -17 -42 -18 0 -21 6 -21 46 0 38 3 45 18 42 12 -2 18 -15
20 -46z"/>
<path d="M3090 235 l0 -65 30 0 c17 0 30 5 30 10 0 6 -11 10 -25 10 -33 0 -34
35 -2 45 l22 8 -22 4 c-32 6 -30 33 2 33 14 0 25 5 25 10 0 6 -13 10 -30 10
l-30 0 0 -65z"/>
<path d="M3280 235 l0 -65 30 0 c17 0 30 5 30 10 0 6 -11 10 -25 10 -18 0 -25
5 -25 20 0 11 7 20 15 20 8 0 15 5 15 10 0 6 -7 10 -15 10 -8 0 -15 7 -15 15
0 9 9 15 25 15 14 0 25 5 25 10 0 6 -13 10 -30 10 l-30 0 0 -65z"/>
<path d="M3532 233 c0 -37 3 -53 5 -35 5 35 25 39 31 6 9 -45 19 -30 18 28 -1
61 -2 63 -28 66 l-28 3 2 -68z m48 32 c0 -8 -9 -15 -20 -15 -11 0 -20 7 -20
15 0 8 9 15 20 15 11 0 20 -7 20 -15z"/>
<path d="M3654 287 c-3 -8 -4 -36 -2 -63 3 -47 4 -49 33 -49 l30 0 0 60 c0 58
-1 60 -28 63 -17 2 -29 -2 -33 -11z m44 -54 c-2 -27 -7 -48 -13 -48 -5 0 -11
21 -13 48 -3 38 0 47 13 47 13 0 16 -9 13 -47z"/>
<path d="M3787 294 c-4 -4 -6 -35 -5 -68 1 -35 3 -47 5 -28 4 26 9 32 29 32
22 0 25 4 22 33 -2 23 -8 33 -23 35 -12 2 -24 0 -28 -4z m43 -29 c0 -8 -9 -15
-20 -15 -11 0 -20 7 -20 15 0 8 9 15 20 15 11 0 20 -7 20 -15z"/>
<path d="M3927 290 c-8 -18 -27 -101 -26 -115 0 -5 7 -1 15 10 15 20 15 20 30
1 14 -20 14 -20 13 0 -2 41 -26 119 -32 104z m9 -77 c-10 -10 -19 5 -10 18 6
11 8 11 12 0 2 -7 1 -15 -2 -18z"/>
<path d="M3402 233 c3 -57 3 -58 33 -58 30 0 30 1 33 58 2 35 -1 57 -8 57 -5
0 -10 -22 -10 -50 0 -38 -4 -50 -15 -50 -11 0 -15 12 -15 50 0 28 -5 50 -10
50 -7 0 -10 -22 -8 -57z"/>
</g>
</svg>
